<svg width="200" height="218" viewBox="0 0 200 218" fill="none" xmlns="http://www.w3.org/2000/svg">
<g clip-path="url(#clip0_1_74)">
<rect width="200" height="218" fill="white"/>
<path d="M-1 218C-1 204.736 1.61244 191.603 6.68817 179.349C11.7639 167.095 19.2035 155.961 28.5822 146.582C37.9609 137.203 49.0951 129.764 61.349 124.688C73.6029 119.612 86.7365 117 100 117C113.264 117 126.397 119.612 138.651 124.688C150.905 129.764 162.039 137.204 171.418 146.582C180.797 155.961 188.236 167.095 193.312 179.349C198.388 191.603 201 204.736 201 218L100 218L-1 218Z" fill="black"/>
<circle cx="99.5" cy="68.5" r="68.5" fill="black"/>
<path d="M50.105 124C63.8574 132.432 102.31 144.421 146.101 124.916" stroke="white" stroke-width="8"/>
<circle cx="99.5" cy="68.5" r="50.5" fill="white"/>
</g>
<defs>
<clipPath id="clip0_1_74">
<rect width="200" height="218" fill="white"/>
</clipPath>
</defs>
</svg>
