<svg width="202" height="319" viewBox="0 0 202 319" fill="none" xmlns="http://www.w3.org/2000/svg">
<path d="M0 218C0 204.736 2.61244 191.603 7.68817 179.349C12.7639 167.095 20.2035 155.961 29.5822 146.582C38.9609 137.203 50.0951 129.764 62.349 124.688C74.6029 119.612 87.7365 117 101 117C114.264 117 127.397 119.612 139.651 124.688C151.905 129.764 163.039 137.204 172.418 146.582C181.797 155.961 189.236 167.095 194.312 179.349C199.388 191.603 202 204.736 202 218L101 218L0 218Z" fill="white"/>
<circle cx="100.5" cy="68.5" r="68.5" fill="white"/>
<path d="M51.105 124C64.8574 132.432 103.31 144.421 147.101 124.916" stroke="black" stroke-width="8"/>
<circle cx="100.5" cy="68.5" r="50.5" fill="#0F0F0F"/>
</svg>
